<svg xmlns="http://www.w3.org/2000/svg" viewBox="0 0 32 32" fill="none">
  <defs>
    <linearGradient id="strawberry" x1="0%" y1="0%" x2="100%" y2="100%">
      <stop offset="0%" style="stop-color:#fb7185;stop-opacity:1" />
      <stop offset="100%" style="stop-color:#f43f5e;stop-opacity:1" />
    </linearGradient>
    <linearGradient id="leaf" x1="0%" y1="0%" x2="100%" y2="100%">
      <stop offset="0%" style="stop-color:#4ade80;stop-opacity:1" />
      <stop offset="100%" style="stop-color:#22c55e;stop-opacity:1" />
    </linearGradient>
  </defs>
  
  <!-- Strawberry body -->
  <path d="M16 8c-6 0-8 4-8 10c0 6 3.5 10 8 10s8-4 8-10c0-6-2-10-8-10z" fill="url(#strawberry)"/>
  
  <!-- Strawberry leaves -->
  <path d="M12 8c0-2 1-4 4-4s4 2 4 4" fill="none" stroke="url(#leaf)" stroke-width="2" stroke-linecap="round"/>
  <path d="M14 6l-2-2M18 6l2-2" fill="none" stroke="url(#leaf)" stroke-width="1.5" stroke-linecap="round"/>
  
  <!-- Strawberry seeds -->
  <circle cx="13" cy="12" r="0.8" fill="#fef3c7"/>
  <circle cx="19" cy="14" r="0.8" fill="#fef3c7"/>
  <circle cx="15" cy="16" r="0.8" fill="#fef3c7"/>
  <circle cx="12" cy="20" r="0.8" fill="#fef3c7"/>
  <circle cx="20" cy="20" r="0.8" fill="#fef3c7"/>
  <circle cx="16" cy="24" r="0.8" fill="#fef3c7"/>
</svg>
